<?xml version="1.0" standalone="no"?>
<!DOCTYPE svg PUBLIC "-//W3C//DTD SVG 20010904//EN"
 "http://www.w3.org/TR/2001/REC-SVG-20010904/DTD/svg10.dtd">
<svg version="1.0" xmlns="http://www.w3.org/2000/svg"
 width="1800.000000pt" height="1800.000000pt" viewBox="0 0 1800.000000 1800.000000"
 preserveAspectRatio="xMidYMid meet">
<metadata>
Created by potrace 1.11, written by Peter Selinger 2001-2013
</metadata>
<g transform="translate(0.000000,1800.000000) scale(0.100000,-0.100000)"
fill="#000000" stroke="none">
<path d="M2109 10635 c-307 -58 -535 -248 -599 -500 -26 -103 -27 -236 0 -339
70 -273 292 -423 795 -535 292 -66 445 -126 538 -211 78 -71 101 -128 101
-250 1 -83 -3 -103 -28 -157 -37 -80 -123 -164 -209 -203 -104 -47 -211 -64
-362 -57 -265 12 -469 92 -692 272 -46 36 -87 64 -93 60 -10 -6 -152 -173
-163 -191 -15 -26 240 -206 386 -273 325 -151 731 -173 1019 -57 161 65 298
187 367 327 99 200 92 456 -17 625 -118 182 -328 290 -759 388 -344 79 -509
161 -578 287 -25 47 -30 67 -33 149 -3 79 0 105 18 152 46 123 175 219 340
254 100 21 292 14 410 -15 103 -26 280 -111 375 -180 38 -28 72 -51 75 -51 8
0 160 206 160 216 0 15 -140 110 -230 158 -104 54 -231 100 -342 121 -116 23
-381 29 -479 10z"/>
<path d="M4641 10613 c-8 -16 -1026 -2265 -1087 -2400 l-23 -53 148 0 148 0
108 243 c111 247 196 438 290 652 29 66 124 280 212 475 88 195 200 444 248
553 49 108 91 197 95 197 3 0 84 -177 180 -392 95 -216 204 -459 241 -539 37
-80 101 -227 142 -325 41 -98 88 -206 104 -239 17 -33 86 -187 154 -342 l124
-283 152 0 c84 0 153 3 153 6 0 5 -1052 2335 -1097 2430 l-17 34 -133 0 c-116
0 -133 -2 -142 -17z"/>
<path d="M9501 10613 c-8 -16 -1026 -2265 -1087 -2400 l-23 -53 148 0 147 0
129 288 c70 158 162 361 202 452 41 91 80 179 87 195 55 131 531 1185 536
1185 6 0 450 -989 592 -1320 22 -52 55 -126 73 -165 17 -38 87 -197 156 -352
l124 -283 152 0 c84 0 153 3 153 6 0 5 -1052 2335 -1097 2430 l-17 34 -133 0
c-116 0 -133 -2 -142 -17z"/>
<path d="M15031 10613 c-8 -16 -1026 -2265 -1087 -2400 l-23 -53 148 0 147 0
129 288 c71 158 159 351 196 428 37 78 70 152 74 165 11 39 548 1239 555 1239
3 0 84 -177 179 -392 96 -216 200 -447 232 -513 31 -66 122 -271 202 -455 79
-184 186 -431 238 -547 l94 -213 152 0 c84 0 153 3 153 6 0 5 -1052 2335
-1097 2430 l-17 34 -133 0 c-116 0 -133 -2 -142 -17z"/>
<path d="M6510 9390 l0 -1230 145 0 145 0 0 430 0 430 338 0 c186 0 376 5 422
11 401 49 686 266 771 586 16 61 21 108 21 213 0 160 -20 249 -82 368 -73 141
-181 241 -343 317 -196 92 -315 105 -949 105 l-468 0 0 -1230z m1140 935 c276
-76 414 -244 413 -505 -1 -210 -105 -371 -298 -461 -146 -67 -176 -71 -592
-76 l-373 -5 0 537 0 537 393 -5 c337 -3 401 -6 457 -22z"/>
<path d="M11370 9390 l0 -1230 140 0 140 0 2 995 3 995 783 -995 784 -995 114
0 114 0 0 1230 0 1231 -137 -3 -138 -3 -5 -970 -5 -971 -765 973 -764 973
-133 0 -133 0 0 -1230z"/>
<path d="M1434 7520 c-51 -20 -72 -102 -35 -139 10 -10 49 -29 85 -41 62 -20
67 -24 64 -49 -3 -22 -8 -26 -41 -29 -25 -2 -50 4 -72 17 -33 19 -33 19 -52
-1 -17 -19 -17 -20 5 -39 24 -19 82 -39 115 -39 37 0 86 29 102 60 32 62 4
103 -90 134 -55 18 -71 27 -73 44 -5 35 34 47 88 28 46 -16 70 -9 70 21 0 32
-113 55 -166 33z"/>
<path d="M1667 7524 c-4 -4 -7 -18 -7 -31 0 -21 4 -23 50 -23 l50 0 0 -130 0
-130 35 0 35 0 0 130 0 130 51 0 c49 0 50 1 47 28 l-3 27 -126 3 c-69 1 -128
-1 -132 -4z"/>
<path d="M2000 7370 l0 -160 30 0 c30 0 30 0 30 56 l0 55 32 -3 c27 -2 39 -13
68 -55 32 -47 38 -52 73 -53 l38 0 -39 55 -40 55 34 34 c25 25 34 43 34 68 0
74 -56 108 -180 108 l-80 0 0 -160z m182 83 c43 -39 4 -83 -74 -83 l-48 0 0
50 0 50 52 0 c34 0 58 -6 70 -17z"/>
<path d="M2435 7498 c-7 -18 -23 -55 -35 -83 -12 -27 -37 -85 -56 -127 l-33
-78 32 0 c29 0 35 5 46 35 l12 35 75 0 74 0 14 -35 c13 -30 20 -35 47 -35 24
0 30 4 25 15 -3 9 -34 81 -68 160 -59 137 -64 145 -91 145 -22 0 -31 -7 -42
-32z m79 -135 c7 -22 4 -23 -39 -23 -26 0 -45 3 -43 8 2 4 12 29 22 56 l20 48
16 -33 c10 -19 21 -44 24 -56z"/>
<path d="M2647 7524 c-4 -4 -7 -18 -7 -31 0 -21 4 -23 50 -23 l50 0 0 -130 0
-130 35 0 35 0 0 130 0 130 51 0 c49 0 50 1 47 28 l-3 27 -126 3 c-69 1 -128
-1 -132 -4z"/>
<path d="M2980 7370 l0 -160 120 0 120 0 0 25 c0 25 -1 25 -90 25 l-90 0 0 40
0 39 78 3 c75 3 77 4 77 28 0 24 -2 25 -77 28 l-78 3 0 34 0 34 88 3 c85 3 87
3 87 28 l0 25 -117 3 -118 3 0 -161z"/>
<path d="M3372 7513 c-118 -58 -117 -240 2 -294 54 -24 96 -24 157 2 l49 21 0
75 0 74 -67 -3 c-65 -3 -68 -4 -68 -28 0 -22 5 -25 38 -28 33 -3 37 -6 37 -31
0 -31 -18 -41 -78 -41 -84 0 -124 114 -64 181 23 26 35 31 71 31 23 -1 53 -8
66 -16 18 -12 25 -13 33 -3 23 30 22 37 -10 57 -41 25 -119 26 -166 3z"/>
<path d="M3670 7370 l0 -160 30 0 30 0 0 160 0 160 -30 0 -30 0 0 -160z"/>
<path d="M3830 7370 l0 -160 120 0 120 0 0 25 c0 25 -1 25 -90 25 l-90 0 0 40
0 39 78 3 c75 3 77 4 77 28 0 24 -2 25 -77 28 l-78 3 0 34 0 34 88 3 c85 3 87
3 87 28 l0 25 -117 3 -118 3 0 -161z"/>
<path d="M4194 7520 c-51 -20 -72 -102 -35 -139 10 -10 49 -29 85 -41 62 -20
67 -24 64 -49 -3 -22 -8 -26 -41 -29 -25 -2 -50 4 -72 17 -33 19 -33 19 -52
-1 -17 -19 -17 -20 5 -39 24 -19 82 -39 115 -39 37 0 86 29 102 60 32 62 4
103 -90 134 -55 18 -71 27 -73 44 -5 35 34 47 88 28 46 -16 70 -9 70 21 0 32
-113 55 -166 33z"/>
<path d="M4610 7370 l0 -160 30 0 c30 0 30 0 30 60 l0 59 78 3 c76 3 77 3 80
31 l3 27 -80 0 -81 0 0 40 0 40 90 0 90 0 0 30 0 30 -120 0 -120 0 0 -160z"/>
<path d="M4992 7514 c-119 -61 -117 -235 4 -294 53 -26 101 -25 154 3 50 26
90 90 90 141 0 42 -38 115 -72 140 -38 27 -132 32 -176 10z m152 -75 c59 -70
16 -179 -71 -179 -90 1 -137 109 -77 179 22 27 32 31 74 31 42 0 52 -4 74 -31z"/>
<path d="M5320 7370 l0 -160 30 0 c30 0 30 0 30 56 l0 55 32 -3 c27 -2 39 -13
68 -55 32 -47 38 -52 73 -53 l38 0 -39 55 -40 55 34 34 c25 25 34 43 34 68 0
74 -56 108 -180 108 l-80 0 0 -160z m182 83 c43 -39 4 -83 -74 -83 l-48 0 0
50 0 50 52 0 c34 0 58 -6 70 -17z"/>
<path d="M5905 7498 c-7 -18 -23 -55 -35 -83 -12 -27 -37 -85 -56 -127 l-33
-78 32 0 c29 0 35 5 46 35 l12 35 75 0 74 0 14 -35 c13 -30 20 -35 47 -35 24
0 30 4 25 15 -3 9 -34 81 -68 160 -59 137 -64 145 -91 145 -22 0 -31 -7 -42
-32z m79 -135 c7 -22 4 -23 -39 -23 -26 0 -45 3 -43 8 2 4 12 29 22 56 l20 48
16 -33 c10 -19 21 -44 24 -56z"/>
<path d="M6180 7370 l0 -160 120 0 120 0 0 25 c0 25 -1 25 -90 25 l-90 0 0 40
0 39 78 3 c75 3 77 4 77 28 0 24 -2 25 -77 28 l-78 3 0 34 0 34 88 3 c85 3 87
3 87 28 l0 25 -117 3 -118 3 0 -161z"/>
<path d="M6500 7370 l0 -160 30 0 c30 0 30 0 30 56 l0 55 32 -3 c27 -2 39 -13
68 -55 32 -47 38 -52 73 -53 l38 0 -39 55 -40 55 34 34 c25 25 34 43 34 68 0
74 -56 108 -180 108 l-80 0 0 -160z m182 83 c43 -39 4 -83 -74 -83 l-48 0 0
50 0 50 52 0 c34 0 58 -6 70 -17z"/>
<path d="M6912 7514 c-119 -61 -117 -235 4 -294 53 -26 101 -25 154 3 50 26
90 90 90 141 0 42 -38 115 -72 140 -38 27 -132 32 -176 10z m152 -75 c59 -70
16 -179 -71 -179 -90 1 -137 109 -77 179 22 27 32 31 74 31 42 0 52 -4 74 -31z"/>
<path d="M7284 7520 c-51 -20 -72 -102 -35 -139 10 -10 49 -29 85 -41 62 -20
67 -24 64 -49 -3 -22 -8 -26 -41 -29 -25 -2 -50 4 -72 17 -33 19 -33 19 -52
-1 -17 -19 -17 -20 5 -39 24 -19 82 -39 115 -39 37 0 86 29 102 60 32 62 4
103 -90 134 -55 18 -71 27 -73 44 -5 35 34 47 88 28 46 -16 70 -9 70 21 0 32
-113 55 -166 33z"/>
<path d="M7550 7371 l0 -161 30 0 c29 0 30 1 30 50 l0 50 53 0 c96 0 154 64
127 144 -17 53 -51 69 -152 74 l-88 4 0 -161z m161 89 c23 -13 26 -62 4 -80
-8 -7 -35 -15 -60 -18 l-45 -5 0 57 0 56 41 0 c22 0 49 -5 60 -10z"/>
<path d="M7925 7498 c-7 -18 -23 -55 -35 -83 -12 -27 -37 -85 -56 -127 l-33
-78 32 0 c29 0 35 5 46 35 l12 35 75 0 74 0 14 -35 c13 -30 20 -35 47 -35 24
0 30 4 25 15 -3 9 -34 81 -68 160 -59 137 -64 145 -91 145 -22 0 -31 -7 -42
-32z m79 -135 c7 -22 4 -23 -39 -23 -26 0 -45 3 -43 8 2 4 12 29 22 56 l20 48
16 -33 c10 -19 21 -44 24 -56z"/>
<path d="M8264 7516 c-60 -26 -103 -113 -89 -179 17 -77 88 -137 163 -137 39
0 92 21 111 44 12 14 11 19 -4 36 -17 19 -18 19 -43 0 -35 -28 -94 -26 -128 3
-20 18 -28 35 -31 74 -5 45 -2 54 24 83 25 27 36 32 72 32 24 -1 51 -8 60 -16
23 -21 34 -20 49 4 16 26 8 38 -34 56 -42 18 -109 17 -150 0z"/>
<path d="M8540 7370 l0 -160 120 0 120 0 0 25 c0 25 -1 25 -90 25 l-90 0 0 40
0 39 78 3 c75 3 77 4 77 28 0 24 -2 25 -77 28 l-78 3 0 34 0 34 88 3 c85 3 87
3 87 28 l0 25 -117 3 -118 3 0 -161z"/>
<path d="M9010 7371 l0 -161 30 0 c29 0 30 1 30 50 l0 50 53 0 c96 0 154 64
127 144 -17 53 -51 69 -152 74 l-88 4 0 -161z m161 89 c23 -13 26 -62 4 -80
-8 -7 -35 -15 -60 -18 l-45 -5 0 57 0 56 41 0 c22 0 49 -5 60 -10z"/>
<path d="M9392 7514 c-119 -61 -117 -235 4 -294 53 -26 101 -25 154 3 50 26
90 90 90 141 0 42 -38 115 -72 140 -38 27 -132 32 -176 10z m152 -75 c59 -70
16 -179 -71 -179 -90 1 -137 109 -77 179 22 27 32 31 74 31 42 0 52 -4 74 -31z"/>
<path d="M9720 7370 l0 -160 110 0 110 0 0 25 c0 25 -1 25 -80 25 l-80 0 0
135 0 135 -30 0 -30 0 0 -160z"/>
<path d="M10020 7370 l0 -160 30 0 30 0 0 160 0 160 -30 0 -30 0 0 -160z"/>
<path d="M10254 7516 c-60 -26 -103 -113 -89 -179 17 -77 88 -137 163 -137 39
0 92 21 111 44 12 14 11 19 -4 36 -17 19 -18 19 -43 0 -35 -28 -94 -26 -128 3
-20 18 -28 35 -31 74 -5 45 -2 54 24 83 25 27 36 32 72 32 24 -1 51 -8 60 -16
23 -21 34 -20 49 4 16 26 8 38 -34 56 -42 18 -109 17 -150 0z"/>
<path d="M10500 7523 c0 -5 27 -48 60 -98 57 -86 60 -93 60 -152 l0 -63 30 0
c30 0 30 0 30 60 0 56 4 66 60 153 33 52 60 97 60 100 0 4 -14 7 -30 7 -27 0
-36 -8 -71 -65 -23 -36 -44 -65 -48 -65 -4 0 -24 29 -46 65 -36 58 -43 65 -72
65 -18 0 -33 -3 -33 -7z"/>
<path d="M11115 7498 c-7 -18 -23 -55 -35 -83 -12 -27 -37 -85 -56 -127 l-33
-78 32 0 c29 0 35 5 46 35 l12 35 75 0 74 0 14 -35 c13 -30 20 -35 47 -35 24
0 30 4 25 15 -3 9 -34 81 -68 160 -59 137 -64 145 -91 145 -22 0 -31 -7 -42
-32z m79 -135 c7 -22 4 -23 -39 -23 -26 0 -45 3 -43 8 2 4 12 29 22 56 l20 48
16 -33 c10 -19 21 -44 24 -56z"/>
<path d="M11390 7370 l0 -160 30 0 29 0 3 103 3 102 79 -102 c67 -88 83 -103
107 -103 l29 0 0 160 0 160 -30 0 -29 0 -3 -107 -3 -106 -80 106 c-67 89 -84
106 -107 107 l-28 0 0 -160z"/>
<path d="M11760 7371 l0 -161 80 0 c93 0 135 14 172 59 59 69 40 183 -38 231
-30 19 -56 25 -126 28 l-88 4 0 -161z m191 70 c23 -24 29 -38 29 -73 0 -24 -7
-53 -15 -65 -16 -23 -70 -43 -117 -43 l-28 0 0 105 0 105 51 0 c43 0 55 -5 80
-29z"/>
<path d="M12280 7370 l0 -160 30 0 29 0 3 103 3 102 79 -102 c67 -88 83 -103
107 -103 l29 0 0 160 0 160 -30 0 -29 0 -3 -107 -3 -106 -80 106 c-67 89 -84
106 -107 107 l-28 0 0 -160z"/>
<path d="M12732 7514 c-119 -61 -117 -235 4 -294 53 -26 101 -25 154 3 50 26
90 90 90 141 0 42 -38 115 -72 140 -38 27 -132 32 -176 10z m152 -75 c59 -70
16 -179 -71 -179 -90 1 -137 109 -77 179 22 27 32 31 74 31 42 0 52 -4 74 -31z"/>
<path d="M13060 7370 l0 -160 30 0 c30 0 30 0 30 56 l0 55 32 -3 c27 -2 39
-13 68 -55 32 -47 38 -52 73 -53 l38 0 -39 55 -40 55 34 34 c25 25 34 43 34
68 0 74 -56 108 -180 108 l-80 0 0 -160z m182 83 c43 -39 4 -83 -74 -83 l-48
0 0 50 0 50 52 0 c34 0 58 -6 70 -17z"/>
<path d="M13400 7370 l0 -160 30 0 29 0 3 102 3 102 40 -62 c22 -34 43 -62 47
-62 4 0 28 30 53 67 l45 68 0 -108 0 -107 30 0 30 0 0 160 0 160 -30 0 c-26 0
-35 -9 -77 -75 l-48 -74 -48 74 c-42 66 -52 75 -77 75 l-30 0 0 -160z"/>
<path d="M14055 7498 c-7 -18 -23 -55 -35 -83 -12 -27 -37 -85 -56 -127 l-33
-78 32 0 c29 0 35 5 46 35 l12 35 75 0 74 0 14 -35 c13 -30 20 -35 47 -35 24
0 30 4 25 15 -3 9 -34 81 -68 160 -59 137 -64 145 -91 145 -22 0 -31 -7 -42
-32z m79 -135 c7 -22 4 -23 -39 -23 -26 0 -45 3 -43 8 2 4 12 29 22 56 l20 48
16 -33 c10 -19 21 -44 24 -56z"/>
<path d="M14330 7371 l0 -161 80 0 c93 0 135 14 172 59 59 69 40 183 -38 231
-30 19 -56 25 -126 28 l-88 4 0 -161z m191 70 c23 -24 29 -38 29 -73 0 -24 -7
-53 -15 -65 -16 -23 -70 -43 -117 -43 l-28 0 0 105 0 105 51 0 c43 0 55 -5 80
-29z"/>
<path d="M14772 7514 c-119 -61 -117 -235 4 -294 53 -26 101 -25 154 3 50 26
90 90 90 141 0 42 -38 115 -72 140 -38 27 -132 32 -176 10z m152 -75 c59 -70
16 -179 -71 -179 -90 1 -137 109 -77 179 22 27 32 31 74 31 42 0 52 -4 74 -31z"/>
<path d="M15100 7371 l0 -161 30 0 c29 0 30 1 30 50 l0 50 53 0 c96 0 154 64
127 144 -17 53 -51 69 -152 74 l-88 4 0 -161z m161 89 c23 -13 26 -62 4 -80
-8 -7 -35 -15 -60 -18 l-45 -5 0 57 0 56 41 0 c22 0 49 -5 60 -10z"/>
<path d="M15397 7524 c-4 -4 -7 -18 -7 -31 0 -21 4 -23 50 -23 l50 0 0 -130 0
-130 35 0 35 0 0 130 0 130 51 0 c49 0 50 1 47 28 l-3 27 -126 3 c-69 1 -128
-1 -132 -4z"/>
<path d="M15730 7370 l0 -160 30 0 30 0 0 160 0 160 -30 0 -30 0 0 -160z"/>
<path d="M15962 7514 c-119 -61 -117 -235 4 -294 53 -26 101 -25 154 3 50 26
90 90 90 141 0 42 -38 115 -72 140 -38 27 -132 32 -176 10z m152 -75 c59 -70
16 -179 -71 -179 -90 1 -137 109 -77 179 22 27 32 31 74 31 42 0 52 -4 74 -31z"/>
<path d="M16290 7370 l0 -160 30 0 29 0 3 103 3 102 79 -102 c67 -88 83 -103
107 -103 l29 0 0 160 0 160 -30 0 -29 0 -3 -107 -3 -106 -80 106 c-67 89 -84
106 -107 107 l-28 0 0 -160z"/>
</g>
</svg>
