<?xml version="1.0" standalone="no"?>
<!DOCTYPE svg PUBLIC "-//W3C//DTD SVG 20010904//EN"
 "http://www.w3.org/TR/2001/REC-SVG-20010904/DTD/svg10.dtd">
<svg version="1.0" xmlns="http://www.w3.org/2000/svg"
 width="1400.000000pt" height="1400.000000pt" viewBox="0 0 1400.000000 1400.000000"
 preserveAspectRatio="xMidYMid meet">
<metadata>
Created by potrace 1.11, written by Peter Selinger 2001-2013
</metadata>
<g transform="translate(0.000000,1400.000000) scale(0.100000,-0.100000)"
fill="#000000" stroke="none">
<path d="M6353 12583 c-44 -3 -63 -8 -63 -17 0 -16 -83 -26 -206 -26 -77 0
-84 -2 -84 -20 0 -19 -7 -20 -105 -20 -98 0 -105 -1 -105 -20 0 -18 -7 -20
-77 -20 -91 0 -123 -7 -123 -26 0 -11 -16 -14 -65 -14 -58 0 -65 -2 -65 -20 0
-18 -7 -20 -61 -20 -52 0 -62 -3 -66 -20 -4 -14 -14 -20 -33 -20 -47 0 -90
-12 -90 -25 0 -13 -43 -25 -91 -25 -22 0 -29 -5 -29 -20 0 -17 -7 -20 -45 -20
-38 0 -45 -3 -45 -20 0 -17 -7 -20 -41 -20 -32 0 -42 -4 -46 -20 -4 -15 -14
-20 -40 -20 -26 0 -36 -5 -40 -19 -3 -13 -17 -22 -44 -26 -22 -4 -39 -12 -39
-20 0 -8 -17 -16 -40 -20 -30 -5 -40 -11 -40 -26 0 -14 -7 -19 -25 -19 -18 0
-25 -5 -25 -20 0 -17 -7 -20 -40 -20 -33 0 -40 -3 -40 -20 0 -13 -7 -20 -20
-20 -13 0 -20 -7 -20 -19 0 -14 -10 -20 -40 -25 -26 -4 -40 -11 -40 -21 0 -9
-9 -15 -21 -15 -12 0 -23 -8 -26 -19 -3 -11 -13 -21 -24 -24 -11 -3 -19 -14
-19 -26 0 -14 -6 -21 -20 -21 -13 0 -20 -7 -20 -20 0 -17 -7 -20 -40 -20 -33
0 -40 -3 -40 -20 0 -13 -7 -20 -20 -20 -13 0 -20 -7 -20 -20 0 -14 -7 -20 -21
-20 -12 0 -23 -8 -26 -20 -3 -11 -14 -20 -24 -20 -12 0 -19 -7 -19 -20 0 -13
-7 -20 -20 -20 -15 0 -20 -7 -20 -25 0 -18 -5 -25 -20 -25 -13 0 -20 -7 -20
-20 0 -13 -7 -20 -20 -20 -13 0 -20 -7 -20 -20 0 -13 -7 -20 -20 -20 -13 0
-20 -7 -20 -20 0 -13 -7 -20 -20 -20 -14 0 -20 -7 -20 -21 0 -12 -8 -23 -20
-26 -13 -3 -22 -17 -26 -39 -4 -24 -12 -34 -25 -34 -14 0 -19 -7 -19 -25 0
-18 -5 -25 -20 -25 -13 0 -20 -7 -20 -20 0 -13 -7 -20 -19 -20 -14 0 -20 -10
-25 -39 -4 -27 -12 -40 -26 -44 -12 -3 -20 -14 -20 -26 0 -12 -6 -21 -15 -21
-10 0 -17 -14 -21 -40 -5 -30 -11 -40 -25 -40 -15 0 -19 -8 -19 -40 0 -33 -3
-40 -20 -40 -17 0 -20 -7 -20 -40 0 -33 -3 -40 -20 -40 -17 0 -20 -7 -20 -45
0 -37 -3 -45 -19 -45 -14 0 -20 -10 -25 -40 -4 -24 -12 -40 -20 -40 -15 0 -26
-42 -26 -96 0 -27 -4 -34 -20 -34 -18 0 -20 -7 -20 -59 0 -50 -3 -59 -20 -64
-18 -5 -20 -14 -20 -86 0 -74 -2 -81 -20 -81 -19 0 -20 -7 -20 -105 0 -98 -1
-105 -20 -105 -20 0 -20 -7 -20 -455 0 -448 0 -455 20 -455 19 0 20 -7 20
-125 0 -118 1 -125 20 -125 18 0 20 -7 20 -85 0 -78 2 -85 20 -85 18 0 20 -7
20 -61 0 -52 3 -62 20 -66 14 -4 20 -14 20 -33 0 -48 12 -90 26 -90 8 0 15
-18 20 -45 5 -35 10 -45 25 -45 15 0 19 -7 19 -40 0 -33 3 -40 20 -40 17 0 20
-7 20 -40 0 -33 3 -40 20 -40 17 0 20 -7 20 -41 0 -32 4 -42 19 -46 12 -3 21
-17 25 -38 4 -21 14 -35 26 -38 12 -3 20 -14 20 -26 0 -14 6 -21 20 -21 13 0
20 -7 20 -20 0 -13 7 -20 20 -20 15 0 20 -7 20 -25 0 -18 5 -25 19 -25 13 0
21 -10 25 -34 4 -22 13 -36 26 -39 12 -3 20 -14 20 -26 0 -14 6 -21 20 -21 13
0 20 -7 20 -20 0 -13 7 -20 20 -20 13 0 20 -7 20 -20 0 -13 7 -20 20 -20 13 0
20 -7 20 -20 0 -13 7 -20 20 -20 13 0 20 -7 20 -20 0 -13 7 -20 20 -20 13 0
20 -7 20 -19 0 -13 8 -21 23 -23 14 -2 23 -11 25 -25 3 -19 10 -23 38 -23 27
0 34 -4 34 -20 0 -15 7 -20 25 -20 18 0 25 -5 25 -20 0 -13 7 -20 20 -20 13 0
20 -7 20 -19 0 -15 10 -21 40 -26 30 -5 40 -11 40 -26 0 -14 7 -19 25 -19 18
0 25 -5 25 -20 0 -17 7 -20 40 -20 33 0 40 -3 40 -20 0 -17 7 -20 40 -20 33 0
40 -3 40 -20 0 -15 7 -20 25 -20 18 0 25 -5 25 -20 0 -16 7 -20 36 -20 27 0
37 -5 41 -19 5 -19 40 -31 94 -31 22 0 29 -5 29 -20 0 -15 7 -20 25 -20 15 0
25 -6 25 -15 0 -10 14 -17 40 -21 30 -5 40 -11 40 -25 0 -15 8 -19 40 -19 33
0 40 -3 40 -20 0 -17 7 -20 45 -20 38 0 45 -3 45 -20 0 -16 7 -20 36 -20 27 0
37 -5 41 -20 4 -14 14 -20 33 -20 48 0 90 -12 90 -26 0 -8 18 -15 45 -20 26
-3 45 -12 45 -19 0 -13 43 -25 91 -25 22 0 29 -5 29 -20 0 -18 7 -20 65 -20
58 0 65 -2 65 -20 0 -18 7 -20 60 -20 53 0 60 -2 60 -20 0 -18 7 -20 58 -20
69 0 102 -8 102 -25 0 -13 51 -25 108 -25 20 0 32 -5 32 -14 0 -18 31 -26 103
-26 42 0 57 -4 57 -14 0 -16 43 -26 116 -26 47 0 54 -2 54 -20 0 -19 7 -20
100 -20 93 0 100 -1 100 -20 0 -18 7 -20 85 -20 78 0 85 -2 85 -20 0 -18 7
-20 68 -20 88 0 142 -10 142 -25 0 -16 46 -25 130 -25 59 0 68 -2 73 -20 5
-18 14 -20 85 -20 71 0 80 -2 85 -20 5 -18 14 -20 86 -20 74 0 81 -2 81 -20 0
-18 7 -20 80 -20 73 0 80 -2 80 -20 0 -18 7 -20 65 -20 58 0 65 -2 65 -20 0
-17 7 -20 41 -20 32 0 42 -4 46 -19 4 -16 18 -20 84 -26 56 -5 79 -11 79 -20
0 -9 18 -16 45 -21 26 -3 45 -12 45 -19 0 -13 43 -25 91 -25 22 0 29 -5 29
-20 0 -18 7 -20 60 -20 53 0 60 -2 60 -20 0 -18 7 -20 65 -20 58 0 65 -2 65
-20 0 -17 7 -20 40 -20 33 0 40 -3 40 -19 0 -16 9 -21 45 -27 27 -4 45 -12 45
-19 0 -8 17 -16 40 -20 30 -5 40 -11 40 -26 0 -16 7 -19 40 -19 33 0 40 -3 40
-20 0 -17 7 -20 40 -20 33 0 40 -3 40 -20 0 -15 7 -20 25 -20 18 0 25 -5 25
-20 0 -17 7 -20 40 -20 33 0 40 -3 40 -19 0 -15 10 -21 40 -26 30 -5 40 -11
40 -26 0 -12 7 -19 20 -19 13 0 20 -7 20 -20 0 -15 7 -20 25 -20 18 0 25 -5
25 -20 0 -13 7 -20 20 -20 13 0 20 -7 20 -20 0 -13 7 -20 20 -20 13 0 20 -7
20 -20 0 -13 7 -20 20 -20 14 0 20 -7 20 -21 0 -12 8 -23 20 -26 11 -3 20 -14
20 -24 0 -12 7 -19 19 -19 15 0 21 -10 26 -40 5 -30 11 -40 26 -40 12 0 19 -7
19 -20 0 -13 7 -20 20 -20 17 0 20 -7 20 -45 0 -38 3 -45 20 -45 15 0 20 -7
20 -29 0 -49 12 -91 26 -91 9 0 14 -11 14 -29 0 -49 12 -91 26 -91 10 0 14
-13 14 -44 0 -88 12 -166 26 -166 12 0 14 -52 14 -290 0 -239 -2 -290 -14
-290 -15 0 -26 -50 -26 -122 0 -34 -4 -48 -14 -48 -15 0 -26 -42 -26 -96 0
-27 -4 -34 -20 -34 -18 0 -20 -7 -20 -60 0 -53 -2 -60 -20 -60 -17 0 -20 -7
-20 -40 0 -32 -4 -40 -19 -40 -14 0 -20 -10 -25 -39 -4 -27 -12 -40 -26 -44
-12 -3 -20 -14 -20 -26 0 -14 -6 -21 -20 -21 -15 0 -20 -7 -20 -25 0 -15 -6
-25 -15 -25 -8 0 -17 -14 -21 -35 -4 -25 -11 -35 -25 -35 -12 0 -19 -7 -19
-20 0 -13 -7 -20 -20 -20 -15 0 -20 -7 -20 -25 0 -18 -5 -25 -20 -25 -13 0
-20 -7 -20 -20 0 -15 -7 -20 -25 -20 -18 0 -25 -5 -25 -20 0 -13 -7 -20 -20
-20 -13 0 -20 -7 -20 -20 0 -13 -7 -20 -20 -20 -13 0 -20 -7 -20 -19 0 -15
-10 -21 -40 -26 -30 -5 -40 -11 -40 -26 0 -12 -7 -19 -20 -19 -13 0 -20 -7
-20 -20 0 -15 -7 -20 -25 -20 -18 0 -25 -5 -25 -20 0 -17 -7 -20 -40 -20 -33
0 -40 -3 -40 -20 0 -17 -7 -20 -40 -20 -32 0 -40 -4 -40 -19 0 -14 -10 -20
-40 -25 -24 -4 -40 -12 -40 -20 0 -9 -17 -16 -45 -20 -28 -5 -45 -12 -45 -21
0 -8 -16 -16 -40 -20 -22 -4 -40 -12 -40 -20 0 -14 -43 -25 -96 -25 -27 0 -34
-4 -34 -20 0 -18 -7 -20 -60 -20 -53 0 -60 -2 -60 -20 0 -18 -7 -20 -85 -20
-78 0 -85 -2 -85 -20 0 -18 -7 -20 -59 -20 -96 0 -181 -12 -181 -25 0 -12
-166 -25 -317 -25 -49 0 -63 -3 -63 -15 0 -13 -27 -15 -185 -15 -150 0 -185 3
-185 14 0 11 -48 15 -250 21 -189 5 -250 10 -250 20 0 13 -90 25 -197 25 -47
0 -63 4 -63 14 0 19 -32 26 -127 26 -76 0 -83 2 -83 20 0 18 -7 20 -85 20 -78
0 -85 2 -85 20 0 18 -7 20 -80 20 -72 0 -80 2 -80 19 0 20 -34 31 -96 31 -22
0 -34 5 -34 14 0 16 -30 26 -82 26 -26 0 -38 5 -38 14 0 14 -42 26 -91 26 -22
0 -29 5 -29 20 0 17 -7 20 -45 20 -38 0 -45 3 -45 20 0 18 -7 20 -60 20 -53 0
-60 2 -60 20 0 17 -7 20 -40 20 -33 0 -40 3 -40 19 0 16 -9 21 -45 27 -27 4
-45 12 -45 19 0 8 -17 16 -40 20 -30 5 -40 11 -40 26 0 15 -7 19 -39 19 -30 0
-40 4 -44 20 -4 16 -14 20 -46 20 -34 0 -41 3 -41 20 0 17 -7 20 -40 20 -33 0
-40 3 -40 20 0 13 -7 20 -20 20 -13 0 -20 7 -20 19 0 15 -10 21 -40 26 -30 5
-40 11 -40 26 0 14 -7 19 -25 19 -18 0 -25 5 -25 20 0 13 -7 20 -20 20 -13 0
-20 7 -20 20 0 17 -7 20 -40 20 -33 0 -40 3 -40 20 0 15 -7 20 -25 20 -18 0
-25 5 -25 19 0 13 -10 21 -34 25 -22 4 -36 13 -39 26 -3 12 -14 20 -26 20 -14
0 -21 6 -21 20 0 13 -7 20 -20 20 -11 0 -20 6 -20 14 0 9 -15 17 -40 21 -30 5
-40 11 -40 26 0 14 -7 19 -25 19 -18 0 -25 5 -25 20 0 17 -7 20 -40 20 -33 0
-40 3 -40 20 0 13 -7 20 -20 20 -15 0 -20 7 -20 25 0 18 -5 25 -19 25 -10 0
-21 9 -24 20 -3 12 -14 20 -26 20 -12 0 -21 6 -21 15 0 8 -14 17 -35 21 -25 4
-35 11 -35 25 0 14 -7 19 -25 19 -18 0 -25 5 -25 20 0 13 -7 20 -20 20 -13 0
-20 7 -20 20 0 13 -7 20 -20 20 -15 0 -20 7 -20 25 0 20 -5 25 -25 25 -16 0
-25 6 -25 15 0 8 -9 15 -20 15 -11 0 -20 -7 -20 -15 0 -8 -9 -15 -20 -15 -13
0 -20 -7 -20 -20 0 -13 -7 -20 -20 -20 -15 0 -20 -7 -20 -25 0 -18 -5 -25 -20
-25 -13 0 -20 -7 -20 -20 0 -14 -7 -20 -21 -20 -12 0 -23 -8 -26 -19 -3 -11
-13 -21 -24 -24 -11 -3 -19 -14 -19 -26 0 -12 -6 -21 -15 -21 -8 0 -17 -14
-21 -35 -4 -25 -11 -35 -25 -35 -14 0 -19 -7 -19 -25 0 -18 -5 -25 -20 -25
-13 0 -20 -7 -20 -20 0 -13 -7 -20 -20 -20 -13 0 -20 -7 -20 -20 0 -13 -7 -20
-20 -20 -14 0 -20 -7 -20 -21 0 -12 -8 -23 -20 -26 -11 -3 -20 -12 -20 -20 0
-8 -9 -17 -20 -20 -14 -4 -22 -17 -26 -44 -5 -29 -11 -39 -25 -39 -12 0 -19
-7 -19 -20 0 -13 -7 -20 -20 -20 -13 0 -20 -7 -20 -20 0 -13 -7 -20 -20 -20
-13 0 -20 -7 -20 -20 0 -13 -7 -20 -20 -20 -14 0 -20 -7 -20 -21 0 -12 -8 -23
-20 -26 -14 -4 -22 -17 -26 -44 -5 -29 -11 -39 -25 -39 -12 0 -19 -7 -19 -20
0 -13 -7 -20 -20 -20 -13 0 -20 -7 -20 -20 0 -13 7 -20 19 -20 13 0 21 -8 23
-23 2 -14 11 -23 26 -25 14 -2 22 -10 22 -23 0 -12 7 -19 20 -19 13 0 20 -7
20 -20 0 -17 7 -20 40 -20 33 0 40 -3 40 -20 0 -13 7 -20 20 -20 13 0 20 -7
20 -20 0 -13 7 -20 19 -20 13 0 21 -8 23 -22 2 -15 11 -24 26 -26 12 -2 22 -9
22 -17 0 -7 9 -15 20 -18 11 -3 20 -12 20 -20 0 -10 14 -18 40 -22 30 -5 40
-11 40 -26 0 -12 7 -19 20 -19 13 0 20 -7 20 -20 0 -15 7 -20 25 -20 18 0 25
-5 25 -19 0 -13 10 -21 34 -25 22 -4 36 -13 39 -26 3 -12 14 -20 26 -20 14 0
21 -6 21 -20 0 -17 7 -20 40 -20 33 0 40 -3 40 -20 0 -13 7 -20 20 -20 13 0
20 -7 20 -20 0 -17 7 -20 40 -20 33 0 40 -3 40 -20 0 -15 7 -20 25 -20 18 0
25 -5 25 -19 0 -15 10 -21 40 -26 30 -5 40 -11 40 -26 0 -14 7 -19 25 -19 15
0 25 -6 25 -15 0 -8 14 -17 34 -20 22 -5 36 -14 39 -26 3 -11 14 -19 26 -19
12 0 21 -6 21 -14 0 -9 15 -17 40 -21 30 -5 40 -11 40 -26 0 -16 7 -19 40 -19
33 0 40 -3 40 -20 0 -14 7 -20 21 -20 12 0 23 -8 26 -19 3 -13 17 -22 44 -26
22 -4 39 -12 39 -20 0 -8 17 -16 39 -20 27 -4 41 -13 44 -26 4 -15 14 -19 46
-19 34 0 41 -3 41 -20 0 -17 7 -20 40 -20 33 0 40 -3 40 -20 0 -17 7 -20 45
-20 38 0 45 -3 45 -20 0 -15 7 -20 29 -20 48 0 91 -12 91 -25 0 -8 18 -16 40
-20 22 -4 40 -12 40 -20 0 -13 43 -25 90 -25 19 0 29 -6 33 -20 4 -17 14 -20
66 -20 54 0 61 -2 61 -20 0 -17 7 -20 45 -20 38 0 45 -3 45 -20 0 -18 7 -20
80 -20 73 0 80 -2 80 -20 0 -18 7 -20 61 -20 51 0 62 -3 66 -19 6 -22 41 -31
119 -31 39 0 54 -4 54 -14 0 -18 31 -26 103 -26 42 0 57 -4 57 -14 0 -17 44
-26 130 -26 59 0 68 -2 73 -20 5 -18 14 -20 91 -20 79 0 86 -2 86 -20 0 -19 7
-20 140 -20 133 0 140 -1 140 -20 0 -19 7 -20 178 -20 197 0 252 -6 252 -26 0
-12 64 -14 375 -14 312 0 375 2 375 14 0 21 47 26 236 26 167 0 174 1 174 20
0 19 7 20 105 20 98 0 105 1 105 20 0 18 7 20 85 20 78 0 85 2 85 20 0 18 7
20 80 20 73 0 80 2 80 20 0 18 7 20 65 20 58 0 65 2 65 20 0 17 7 20 49 20 66
0 111 10 111 25 0 14 43 25 96 25 27 0 34 4 34 20 0 17 7 20 40 20 33 0 40 3
40 20 0 18 7 20 60 20 53 0 60 2 60 20 0 17 7 20 45 20 38 0 45 3 45 20 0 17
7 20 41 20 32 0 42 4 46 19 3 13 17 22 44 26 29 5 39 11 39 26 0 16 7 19 40
19 33 0 40 3 40 20 0 17 7 20 40 20 33 0 40 3 40 20 0 15 7 20 25 20 18 0 25
5 25 20 0 16 7 20 36 20 27 0 37 5 41 20 3 11 14 20 24 20 12 0 19 7 19 19 0
15 10 21 40 26 30 5 40 11 40 26 0 12 7 19 20 19 13 0 20 7 20 20 0 15 7 20
25 20 18 0 25 5 25 20 0 13 7 20 20 20 13 0 20 7 20 20 0 13 7 20 20 20 13 0
20 7 20 20 0 13 7 20 20 20 13 0 20 7 20 20 0 14 7 20 21 20 12 0 23 8 26 19
3 11 13 21 24 24 11 3 19 14 19 26 0 14 6 21 20 21 13 0 20 7 20 20 0 17 7 20
40 20 l40 0 0 40 c0 34 3 40 21 40 12 0 23 8 26 19 3 11 13 21 24 24 11 3 19
14 19 26 0 14 6 21 20 21 13 0 20 7 20 20 0 13 7 20 20 20 13 0 20 7 20 19 0
10 9 21 20 24 15 4 20 14 20 41 0 29 4 36 20 36 15 0 20 7 20 25 0 18 5 25 20
25 17 0 20 7 20 40 0 33 3 40 19 40 15 0 21 10 26 40 5 30 11 40 26 40 16 0
19 7 19 40 0 33 3 40 20 40 17 0 20 7 20 45 0 38 3 45 20 45 17 0 20 7 20 40
0 33 3 40 20 40 18 0 20 7 20 60 0 53 2 60 20 60 16 0 20 7 20 34 0 62 11 96
31 96 16 0 19 8 19 59 0 50 3 59 20 64 17 4 20 14 20 71 0 49 3 66 14 66 17 0
26 44 26 131 0 52 3 69 14 69 7 0 16 14 20 31 3 17 6 242 6 500 0 462 0 469
-20 469 -18 0 -20 7 -20 85 0 78 -2 85 -20 85 -18 0 -20 7 -20 54 0 73 -10
116 -26 116 -10 0 -14 16 -14 60 0 52 -2 60 -19 60 -19 0 -31 34 -31 91 0 22
-5 29 -20 29 -17 0 -20 7 -20 45 0 38 -3 45 -20 45 -17 0 -20 7 -20 45 0 38
-3 45 -20 45 -17 0 -20 7 -20 40 0 33 -3 40 -20 40 -17 0 -20 7 -20 40 0 33
-3 40 -19 40 -15 0 -21 10 -26 40 -5 30 -11 40 -26 40 -14 0 -19 7 -19 25 0
18 -5 25 -20 25 -13 0 -20 7 -20 20 0 13 -7 20 -20 20 -17 0 -20 7 -20 40 0
33 -3 40 -20 40 -13 0 -20 7 -20 20 0 13 -7 20 -20 20 -13 0 -20 7 -20 20 0
14 -7 20 -21 20 -12 0 -23 8 -26 20 -3 11 -12 20 -20 20 -8 0 -17 9 -20 20 -3
11 -14 20 -24 20 -14 0 -19 7 -19 25 0 18 -5 25 -20 25 -13 0 -20 7 -20 20 0
13 -7 20 -20 20 -13 0 -20 7 -20 20 0 15 -7 20 -25 20 -18 0 -25 5 -25 19 0
13 -10 21 -34 25 -22 4 -36 13 -39 26 -3 12 -14 20 -26 20 -14 0 -21 6 -21 20
0 13 -7 20 -20 20 -13 0 -20 7 -20 20 0 15 -7 20 -25 20 -18 0 -25 5 -25 20 0
16 -7 20 -35 20 -28 0 -35 4 -35 20 0 15 -7 20 -25 20 -18 0 -25 5 -25 20 0
17 -7 20 -40 20 -33 0 -40 3 -40 20 0 14 -7 20 -21 20 -12 0 -23 8 -26 20 -4
14 -17 22 -44 26 -23 4 -39 12 -39 20 0 8 -16 16 -40 20 -30 5 -40 11 -40 25
0 16 -8 19 -45 19 -38 0 -45 3 -45 20 0 17 -7 20 -40 20 -33 0 -40 3 -40 20 0
15 -7 20 -29 20 -57 0 -91 12 -91 31 0 15 -8 19 -39 19 -30 0 -40 4 -44 20 -4
16 -14 20 -46 20 -34 0 -41 3 -41 20 0 18 -7 20 -60 20 -53 0 -60 2 -60 20 0
17 -7 20 -40 20 -33 0 -40 3 -40 20 0 17 -7 20 -45 20 -38 0 -45 3 -45 20 0
16 -7 20 -37 20 -53 0 -83 10 -83 26 0 9 -11 14 -27 14 -52 0 -103 13 -103 25
0 13 -43 25 -90 25 -19 0 -29 6 -33 20 -4 17 -14 20 -66 20 -54 0 -61 2 -61
20 0 18 -7 20 -80 20 -73 0 -80 2 -80 20 0 18 -7 20 -85 20 -78 0 -85 2 -85
20 0 18 -7 20 -54 20 -71 0 -116 10 -116 25 0 15 -45 25 -116 25 -39 0 -54 4
-54 14 0 17 -44 26 -130 26 -59 0 -68 2 -73 20 -5 18 -14 20 -91 20 -67 0 -86
3 -86 14 0 19 -32 26 -122 26 -71 0 -78 2 -78 20 0 18 -7 20 -85 20 -78 0 -85
2 -85 20 0 17 -7 20 -49 20 -66 0 -111 10 -111 25 0 14 -52 25 -122 25 -41 0
-48 3 -48 20 0 18 -7 20 -80 20 -73 0 -80 2 -80 20 0 18 -7 20 -65 20 -58 0
-65 2 -65 20 0 18 -7 20 -60 20 -53 0 -60 2 -60 20 0 17 -7 20 -45 20 -38 0
-45 3 -45 20 0 17 -7 20 -41 20 -32 0 -42 4 -46 19 -5 18 -40 31 -88 31 -14 0
-25 7 -28 20 -4 16 -14 20 -46 20 -29 0 -41 4 -41 14 0 10 -16 17 -45 22 -35
5 -45 10 -45 25 0 15 -7 19 -40 19 -33 0 -40 3 -40 20 0 18 -7 20 -60 20 -53
0 -60 2 -60 20 0 14 -7 20 -21 20 -12 0 -23 8 -26 19 -3 13 -17 22 -44 26 -22
4 -39 12 -39 20 0 8 -17 16 -40 20 -30 5 -40 11 -40 26 0 12 -7 19 -19 19 -10
0 -21 9 -24 20 -4 15 -14 20 -41 20 -29 0 -36 4 -36 20 0 15 -7 20 -25 20 -18
0 -25 5 -25 20 0 13 -7 20 -20 20 -13 0 -20 7 -20 20 0 13 -7 20 -20 20 -13 0
-20 7 -20 20 0 14 -7 20 -21 20 -12 0 -23 8 -26 19 -3 11 -13 21 -24 24 -11 3
-19 14 -19 26 0 14 -6 21 -20 21 -13 0 -20 7 -20 20 0 13 -7 20 -20 20 -13 0
-20 7 -20 20 0 13 -7 20 -20 20 -15 0 -20 7 -20 25 0 18 -5 25 -20 25 -17 0
-20 7 -20 40 0 33 -3 40 -20 40 -17 0 -20 7 -20 40 0 33 -3 40 -20 40 -16 0
-20 7 -20 34 0 54 -11 96 -26 96 -9 0 -14 11 -14 29 0 48 -12 91 -25 91 -22 0
-25 54 -25 415 0 361 3 415 25 415 14 0 25 52 25 123 0 40 3 47 20 47 17 0 20
7 20 39 0 30 4 40 20 44 16 4 20 14 20 46 0 34 3 41 20 41 17 0 20 7 20 40 0
33 3 40 20 40 13 0 20 7 20 20 0 13 7 20 19 20 14 0 20 10 25 40 5 31 11 40
26 40 13 0 20 7 20 19 0 10 9 21 20 24 12 3 20 14 20 26 0 14 6 21 20 21 13 0
20 7 20 20 0 13 7 20 20 20 13 0 20 7 20 20 0 13 7 20 20 20 13 0 20 7 20 20
0 13 7 20 20 20 13 0 20 7 20 20 0 14 7 20 21 20 12 0 23 8 26 19 3 11 13 21
24 24 11 3 19 14 19 26 0 14 6 21 20 21 13 0 20 7 20 20 0 17 7 20 40 20 33 0
40 3 40 20 0 13 7 20 20 20 13 0 20 7 20 20 0 17 7 20 41 20 32 0 42 4 46 19
3 13 17 22 44 26 22 4 39 12 39 20 0 8 17 16 39 20 27 4 41 13 44 26 4 15 14
19 46 19 34 0 41 3 41 20 0 18 7 20 60 20 53 0 60 2 60 20 0 18 7 20 65 20 58
0 65 2 65 20 0 18 7 20 80 20 73 0 80 2 80 20 0 19 7 20 94 20 109 0 156 8
156 25 0 18 437 29 795 20 216 -6 285 -10 285 -20 0 -14 92 -25 211 -25 68 0
77 -2 82 -20 5 -18 14 -20 106 -20 94 0 101 -1 101 -20 0 -18 7 -20 85 -20 78
0 85 -2 85 -20 0 -18 7 -20 65 -20 58 0 65 -2 65 -20 0 -18 7 -20 60 -20 52 0
60 -2 60 -19 0 -20 34 -31 96 -31 22 0 34 -5 34 -14 0 -16 30 -26 83 -26 30 0
37 -4 37 -20 0 -17 7 -20 45 -20 38 0 45 -3 45 -20 0 -18 7 -20 60 -20 53 0
60 -2 60 -20 0 -13 7 -20 20 -20 13 0 20 -7 20 -20 0 -17 7 -20 41 -20 33 0
42 -4 46 -20 4 -14 17 -22 44 -26 29 -5 39 -11 39 -25 0 -15 8 -19 40 -19 33
0 40 -3 40 -20 0 -15 7 -20 25 -20 18 0 25 -5 25 -20 0 -17 7 -20 40 -20 33 0
40 -3 40 -20 0 -17 7 -20 40 -20 33 0 40 -3 40 -20 0 -14 7 -20 21 -20 12 0
23 -8 26 -20 3 -12 17 -22 38 -26 21 -4 35 -13 38 -25 3 -11 14 -19 26 -19 12
0 21 -6 21 -14 0 -9 15 -17 40 -21 30 -5 40 -11 40 -26 0 -12 7 -19 20 -19 13
0 20 -7 20 -20 0 -17 7 -20 40 -20 33 0 40 -3 40 -20 0 -14 7 -20 21 -20 12 0
23 -8 26 -19 3 -11 13 -21 24 -24 10 -3 19 -12 19 -20 0 -10 14 -18 40 -22 30
-5 40 -11 40 -26 0 -12 7 -19 20 -19 13 0 20 -7 20 -20 0 -18 7 -20 65 -20 63
0 65 1 65 25 0 18 5 25 20 25 16 0 20 7 20 35 0 28 4 35 19 35 13 0 21 8 23
23 2 14 11 23 26 25 14 2 22 10 22 23 0 10 6 19 14 19 9 0 17 15 21 40 5 30
11 40 26 40 12 0 19 7 19 20 0 13 7 20 20 20 13 0 20 7 20 20 0 13 7 20 20 20
15 0 20 7 20 25 0 18 5 25 19 25 15 0 21 10 26 40 5 30 11 40 26 40 12 0 19 7
19 19 0 10 9 21 20 24 12 3 20 14 20 26 0 14 6 21 20 21 16 0 20 7 20 34 0 25
5 35 20 39 12 3 20 14 20 26 0 14 6 21 20 21 13 0 20 7 20 20 0 13 7 20 20 20
17 0 20 7 20 39 0 33 4 40 23 43 14 2 23 11 25 26 2 14 10 22 23 22 17 0 19 7
19 60 0 53 -2 60 -20 60 -13 0 -20 7 -20 20 0 14 -7 20 -21 20 -12 0 -23 8
-26 20 -3 11 -14 20 -24 20 -12 0 -19 7 -19 19 0 15 -10 21 -40 26 -30 5 -40
11 -40 26 0 14 -7 19 -25 19 -18 0 -25 5 -25 20 0 16 -7 20 -35 20 -28 0 -35
4 -35 20 0 15 -7 20 -25 20 -18 0 -25 5 -25 19 0 15 -10 21 -40 26 -30 5 -40
11 -40 26 0 14 -7 19 -25 19 -18 0 -25 5 -25 20 0 17 -7 20 -40 20 -33 0 -40
3 -40 20 0 17 -7 20 -40 20 -33 0 -40 3 -40 20 0 13 -7 20 -20 20 -13 0 -20 7
-20 19 0 14 -10 20 -39 25 -27 4 -40 12 -44 26 -3 12 -14 20 -26 20 -12 0 -21
6 -21 14 0 9 -15 17 -40 21 -30 5 -40 11 -40 26 0 16 -7 19 -40 19 -33 0 -40
3 -40 20 0 15 -7 20 -25 20 -18 0 -25 5 -25 20 0 17 -7 20 -40 20 -33 0 -40 3
-40 20 0 17 -7 20 -41 20 -32 0 -42 4 -46 19 -3 13 -17 22 -44 26 -22 4 -39
12 -39 20 0 13 -43 25 -91 25 -22 0 -29 5 -29 20 0 17 -7 20 -45 20 -38 0 -45
3 -45 20 0 18 -7 20 -60 20 -53 0 -60 2 -60 20 0 17 -7 20 -45 20 -38 0 -45 3
-45 20 0 17 -7 20 -49 20 -66 0 -111 10 -111 25 0 13 -43 25 -90 25 -19 0 -29
6 -33 20 -4 17 -14 20 -66 20 -45 0 -61 4 -61 14 0 17 -44 26 -130 26 -59 0
-68 2 -73 20 -5 18 -14 20 -106 20 -94 0 -101 1 -101 20 0 19 -7 20 -130 20
-123 0 -130 1 -130 20 0 19 -7 20 -93 20 -151 0 -277 11 -277 25 0 8 -32 14
-97 18 -98 7 -893 6 -1010 0z"/>
</g>
</svg>
