<?xml version="1.0" standalone="no"?>
<!DOCTYPE svg PUBLIC "-//W3C//DTD SVG 20010904//EN"
 "http://www.w3.org/TR/2001/REC-SVG-20010904/DTD/svg10.dtd">
<svg version="1.0" xmlns="http://www.w3.org/2000/svg"
 width="336.000000pt" height="336.000000pt" viewBox="0 0 336.000000 336.000000"
 preserveAspectRatio="xMidYMid meet">
<metadata>
Created by potrace 1.11, written by Peter Selinger 2001-2013
</metadata>
<g transform="translate(0.000000,336.000000) scale(0.100000,-0.100000)"
fill="#000000" stroke="none">
<path d="M1435 3005 c-407 -76 -655 -344 -655 -704 0 -172 46 -312 135 -417
57 -66 116 -110 237 -173 122 -65 254 -108 488 -160 408 -90 604 -193 657
-344 27 -78 24 -224 -6 -300 -49 -123 -190 -226 -361 -264 -108 -23 -297 -21
-427 6 -225 47 -389 129 -590 298 l-52 44 -96 -113 -97 -113 44 -38 c55 -48
264 -190 329 -223 214 -108 537 -175 769 -159 178 12 400 80 516 159 69 47
181 165 214 227 62 117 82 192 87 330 5 107 2 137 -16 203 -31 112 -75 192
-145 261 -82 82 -139 119 -268 176 -141 63 -219 87 -468 144 -285 65 -440 129
-542 223 -81 76 -101 132 -96 272 3 93 7 111 32 158 61 111 186 196 332 227
38 8 119 15 180 15 251 0 445 -65 671 -226 34 -24 65 -44 70 -44 17 0 175 219
169 235 -7 20 -201 146 -291 190 -87 42 -203 79 -315 100 -121 24 -402 29
-505 10z"/>
</g>
</svg>
